<svg xmlns="http://www.w3.org/2000/svg" version="1.1" xmlns:xlink="http://www.w3.org/1999/xlink" xmlns:svgjs="http://svgjs.dev/svgjs" viewBox="0 0 800 800"><rect width="100%" height="100%" fill="hsl(0, 0%, 0%)"></rect><g fill="hsl(0, 0%, 100%)"><rect width="207" height="3" x="111.5" y="210.5" rx="1.5" transform="rotate(45, 215, 212)" opacity="0.31"></rect><rect width="629" height="3" x="-256.5" y="659.5" rx="1.5" transform="rotate(45, 58, 661)" opacity="0.99"></rect><rect width="510" height="3" x="193" y="47.5" rx="1.5" transform="rotate(45, 448, 49)" opacity="0.57"></rect><rect width="86" height="3" x="312" y="38.5" rx="1.5" transform="rotate(45, 355, 40)" opacity="0.93"></rect><rect width="238" height="3" x="459" y="23.5" rx="1.5" transform="rotate(45, 578, 25)" opacity="0.60"></rect><rect width="468" height="3" x="139" y="754.5" rx="1.5" transform="rotate(45, 373, 756)" opacity="0.75"></rect><rect width="471" height="3" x="368.5" y="312.5" rx="1.5" transform="rotate(45, 604, 314)" opacity="0.07"></rect><rect width="130" height="3" x="698" y="311.5" rx="1.5" transform="rotate(45, 763, 313)" opacity="0.98"></rect><rect width="426" height="3" x="-171" y="751.5" rx="1.5" transform="rotate(45, 42, 753)" opacity="0.24"></rect><rect width="403" height="3" x="343.5" y="72.5" rx="1.5" transform="rotate(45, 545, 74)" opacity="0.19"></rect><rect width="133" height="3" x="410.5" y="701.5" rx="1.5" transform="rotate(45, 477, 703)" opacity="0.98"></rect><rect width="352" height="3" x="488" y="693.5" rx="1.5" transform="rotate(45, 664, 695)" opacity="0.72"></rect><rect width="322" height="3" x="272" y="746.5" rx="1.5" transform="rotate(45, 433, 748)" opacity="0.51"></rect><rect width="329" height="3" x="455.5" y="648.5" rx="1.5" transform="rotate(45, 620, 650)" opacity="0.64"></rect><rect width="385" height="3" x="477.5" y="31.5" rx="1.5" transform="rotate(45, 670, 33)" opacity="0.25"></rect><rect width="274" height="3" x="487" y="775.5" rx="1.5" transform="rotate(45, 624, 777)" opacity="0.98"></rect><rect width="389" height="3" x="-63.5" y="386.5" rx="1.5" transform="rotate(45, 131, 388)" opacity="0.74"></rect><rect width="104" height="3" x="415" y="304.5" rx="1.5" transform="rotate(45, 467, 306)" opacity="1.00"></rect><rect width="437" height="3" x="210.5" y="576.5" rx="1.5" transform="rotate(45, 429, 578)" opacity="0.72"></rect><rect width="471" height="3" x="-102.5" y="758.5" rx="1.5" transform="rotate(45, 133, 760)" opacity="0.76"></rect><rect width="484" height="3" x="92" y="636.5" rx="1.5" transform="rotate(45, 334, 638)" opacity="0.27"></rect><rect width="76" height="3" x="553" y="732.5" rx="1.5" transform="rotate(45, 591, 734)" opacity="0.53"></rect><rect width="342" height="3" x="475" y="90.5" rx="1.5" transform="rotate(45, 646, 92)" opacity="0.84"></rect><rect width="569" height="3" x="269.5" y="599.5" rx="1.5" transform="rotate(45, 554, 601)" opacity="0.09"></rect><rect width="493" height="3" x="265.5" y="136.5" rx="1.5" transform="rotate(45, 512, 138)" opacity="0.71"></rect><rect width="258" height="3" x="36" y="683.5" rx="1.5" transform="rotate(45, 165, 685)" opacity="0.60"></rect><rect width="487" height="3" x="-8.5" y="759.5" rx="1.5" transform="rotate(45, 235, 761)" opacity="0.81"></rect><rect width="94" height="3" x="644" y="355.5" rx="1.5" transform="rotate(45, 691, 357)" opacity="0.97"></rect><rect width="250" height="3" x="375" y="526.5" rx="1.5" transform="rotate(45, 500, 528)" opacity="0.37"></rect><rect width="133" height="3" x="-14.5" y="451.5" rx="1.5" transform="rotate(45, 52, 453)" opacity="0.56"></rect><rect width="456" height="3" x="-53" y="149.5" rx="1.5" transform="rotate(45, 175, 151)" opacity="0.81"></rect><rect width="279" height="3" x="85.5" y="31.5" rx="1.5" transform="rotate(45, 225, 33)" opacity="0.13"></rect><rect width="99" height="3" x="89.5" y="224.5" rx="1.5" transform="rotate(45, 139, 226)" opacity="0.97"></rect><rect width="88" height="3" x="212" y="135.5" rx="1.5" transform="rotate(45, 256, 137)" opacity="0.70"></rect><rect width="471" height="3" x="413.5" y="563.5" rx="1.5" transform="rotate(45, 649, 565)" opacity="0.14"></rect><rect width="362" height="3" x="166" y="266.5" rx="1.5" transform="rotate(45, 347, 268)" opacity="0.61"></rect><rect width="326" height="3" x="416" y="509.5" rx="1.5" transform="rotate(45, 579, 511)" opacity="0.19"></rect><rect width="65" height="3" x="3.5" y="297.5" rx="1.5" transform="rotate(45, 36, 299)" opacity="0.53"></rect><rect width="274" height="3" x="156" y="77.5" rx="1.5" transform="rotate(45, 293, 79)" opacity="0.13"></rect><rect width="553" height="3" x="84.5" y="142.5" rx="1.5" transform="rotate(45, 361, 144)" opacity="0.88"></rect><rect width="679" height="3" x="217.5" y="227.5" rx="1.5" transform="rotate(45, 557, 229)" opacity="0.34"></rect><rect width="236" height="3" x="353" y="390.5" rx="1.5" transform="rotate(45, 471, 392)" opacity="0.43"></rect><rect width="463" height="3" x="292.5" y="452.5" rx="1.5" transform="rotate(45, 524, 454)" opacity="0.15"></rect><rect width="116" height="3" x="169" y="285.5" rx="1.5" transform="rotate(45, 227, 287)" opacity="0.64"></rect><rect width="190" height="3" x="56" y="75.5" rx="1.5" transform="rotate(45, 151, 77)" opacity="0.59"></rect><rect width="503" height="3" x="502.5" y="71.5" rx="1.5" transform="rotate(45, 754, 73)" opacity="0.38"></rect><rect width="366" height="3" x="352" y="680.5" rx="1.5" transform="rotate(45, 535, 682)" opacity="0.15"></rect><rect width="519" height="3" x="-39.5" y="636.5" rx="1.5" transform="rotate(45, 220, 638)" opacity="0.39"></rect><rect width="529" height="3" x="-33.5" y="384.5" rx="1.5" transform="rotate(45, 231, 386)" opacity="0.21"></rect><rect width="124" height="3" x="-4" y="52.5" rx="1.5" transform="rotate(45, 58, 54)" opacity="0.29"></rect><rect width="593" height="3" x="118.5" y="483.5" rx="1.5" transform="rotate(45, 415, 485)" opacity="0.28"></rect><rect width="354" height="3" x="-95" y="566.5" rx="1.5" transform="rotate(45, 82, 568)" opacity="0.17"></rect><rect width="269" height="3" x="622.5" y="529.5" rx="1.5" transform="rotate(45, 757, 531)" opacity="0.95"></rect><rect width="361" height="3" x="198.5" y="381.5" rx="1.5" transform="rotate(45, 379, 383)" opacity="0.88"></rect><rect width="409" height="3" x="65.5" y="573.5" rx="1.5" transform="rotate(45, 270, 575)" opacity="0.85"></rect><rect width="311" height="3" x="580.5" y="604.5" rx="1.5" transform="rotate(45, 736, 606)" opacity="0.91"></rect><rect width="157" height="3" x="230.5" y="443.5" rx="1.5" transform="rotate(45, 309, 445)" opacity="0.51"></rect><rect width="215" height="3" x="404.5" y="768.5" rx="1.5" transform="rotate(45, 512, 770)" opacity="0.68"></rect><rect width="518" height="3" x="468" y="210.5" rx="1.5" transform="rotate(45, 727, 212)" opacity="0.54"></rect><rect width="525" height="3" x="56.5" y="518.5" rx="1.5" transform="rotate(45, 319, 520)" opacity="0.50"></rect><rect width="294" height="3" x="601" y="671.5" rx="1.5" transform="rotate(45, 748, 673)" opacity="0.36"></rect><rect width="370" height="3" x="256" y="160.5" rx="1.5" transform="rotate(45, 441, 162)" opacity="0.70"></rect><rect width="403" height="3" x="434.5" y="461.5" rx="1.5" transform="rotate(45, 636, 463)" opacity="0.75"></rect><rect width="129" height="3" x="123.5" y="500.5" rx="1.5" transform="rotate(45, 188, 502)" opacity="0.67"></rect><rect width="321" height="3" x="146.5" y="729.5" rx="1.5" transform="rotate(45, 307, 731)" opacity="0.88"></rect><rect width="418" height="3" x="428" y="158.5" rx="1.5" transform="rotate(45, 637, 160)" opacity="0.17"></rect><rect width="340" height="3" x="604" y="747.5" rx="1.5" transform="rotate(45, 774, 749)" opacity="0.46"></rect><rect width="146" height="3" x="48" y="297.5" rx="1.5" transform="rotate(45, 121, 299)" opacity="0.21"></rect><rect width="327" height="3" x="265.5" y="651.5" rx="1.5" transform="rotate(45, 429, 653)" opacity="0.90"></rect><rect width="470" height="3" x="529" y="429.5" rx="1.5" transform="rotate(45, 764, 431)" opacity="0.21"></rect><rect width="57" height="3" x="395.5" y="234.5" rx="1.5" transform="rotate(45, 424, 236)" opacity="0.76"></rect><rect width="253" height="3" x="449.5" y="397.5" rx="1.5" transform="rotate(45, 576, 399)" opacity="0.23"></rect><rect width="149" height="3" x="-18.5" y="170.5" rx="1.5" transform="rotate(45, 56, 172)" opacity="0.07"></rect><rect width="294" height="3" x="562" y="756.5" rx="1.5" transform="rotate(45, 709, 758)" opacity="0.20"></rect><rect width="265" height="3" x="161.5" y="206.5" rx="1.5" transform="rotate(45, 294, 208)" opacity="0.92"></rect><rect width="456" height="3" x="80" y="336.5" rx="1.5" transform="rotate(45, 308, 338)" opacity="0.31"></rect><rect width="201" height="3" x="596.5" y="467.5" rx="1.5" transform="rotate(45, 697, 469)" opacity="0.59"></rect></g></svg>