<svg xmlns="http://www.w3.org/2000/svg" version="1.1" xmlns:xlink="http://www.w3.org/1999/xlink" xmlns:svgjs="http://svgjs.dev/svgjs" viewBox="0 0 800 800"><defs><linearGradient x1="50%" y1="0%" x2="50%" y2="100%" id="uundulate-grad"><stop stop-color="hsl(0, 0%, 100%)" stop-opacity="1" offset="45%"></stop><stop stop-color="hsl(0, 0%, 100%)" stop-opacity="1" offset="100%"></stop></linearGradient></defs><g stroke-width="1" stroke="url(#uundulate-grad)" fill="none"><path d="M1399.894008684283 377.4667728211509C1418.991360589649 670.4344089928763 1188.0463855707558 1046.9411565710805 918.2412734835236 1162.6992931552643C648.4361613962917 1278.4574297394483 415.7633800898925 1236.399256027885 104.82947066557199 933.1058284252306C-206.10443875874842 629.8124008225761 -724.6049321015889 -47.973494984511944 -574.2414917532146 -293.1091593374798C-423.87805140484033 -538.2448236904478 415.29575507995764 -383.24867966873245 826.5739843377698 -243.54536046901785C1237.8522135955818 -103.8420412693032 1380.7966567789172 84.49913664942551 1399.894008684283 377.4667728211509C1418.991360589649 670.4344089928763 1188.0463855707558 1046.9411565710805 918.2412734835236 1162.6992931552643 "></path><path d="M1386.9083714151993 377.7593554596597C1405.7577057633525 666.9222171356487 1177.8120161343154 1038.5392666933565 911.5108665417226 1152.7940508543693C645.2097169491301 1267.0488350153817 415.5586600752815 1225.536871352021 108.66285337075738 926.1823194325177C-198.23295333376677 626.8277675130146 -709.999674035791 -42.15571406281265 -561.589005639993 -284.1077983592486C-413.17833724419506 -526.0598826556845 415.0971081174239 -373.0766755693161 821.0340616705889 -235.1876851903769C1226.971015223754 -97.29869481143783 1368.0590370670457 88.59649378367101 1386.9083714151993 377.7593554596597C1405.7577057633525 666.9222171356487 1177.8120161343154 1038.5392666933565 911.5108665417226 1152.7940508543693 "></path><path d="M1373.922856216428 378.05206016848115C1392.5241730073694 663.4101473487331 1167.5777687681875 1030.137498885945 904.7805816702341 1142.8889306237863C641.9833945722808 1255.640362361628 415.35406213098304 1214.674608746469 112.49635814625526 919.2589325101171C-190.36134583847252 623.8432562737653 -695.3942938996807 -36.33781107080085 -548.936397456459 -275.1063153107048C-402.4785010132373 -513.8748195506087 414.8985832252022 -362.9045493995872 815.4942610737205 -226.82988784142367C1216.0899389222386 -90.75522628326007 1355.3215394254871 92.693972988229 1373.922856216428 378.05206016848115C1392.5241730073694 663.4101473487331 1167.5777687681875 1030.137498885945 904.7805816702341 1142.8889306237863 "></path><path d="M1360.9369748067197 378.3446733245678C1379.290274040448 659.8979860090833 1157.3431551911222 1021.7356395257989 898.0499305878079 1132.983718840469C638.7567059844941 1244.2317981551394 415.1490979757468 1203.8122545881827 116.32949671081565 912.3354540349821C-182.49010455411576 620.8586534817816 -680.789279974508 -30.51999963152366 -536.2841554838625 -266.1049238148954C-391.779030993217 -501.6898479982672 414.6996921220434 -352.7325147825927 809.9540942659146 -218.4721820452046C1205.2084964097858 -84.21184930781646 1342.583675572991 96.79136064005263 1360.9369748067197 378.3446733245678C1379.290274040448 659.8979860090833 1157.3431551911222 1021.7356395257989 898.0499305878079 1132.983718840469 "></path><path d="M1347.9514596079484 378.6372864806549C1366.056741284464 656.3858246694335 1147.1089078249938 1013.333780165653 891.3196457163194 1123.078507057152C635.530383607645 1232.8232339486508 414.94450003144834 1192.9499004298964 120.16300148631342 905.4119755598472C-174.6184970588215 617.874050689798 -666.1838998383976 -24.70218819224624 -523.6315473003284 -257.103532319086C-381.07919476225925 -489.50487644592573 414.50116722982193 -342.5604801655982 804.4142936690464 -210.11447624898562C1194.3274201082709 -77.66847233237309 1329.8461779314325 100.88874829187625 1347.9514596079484 378.6372864806549C1366.056741284464 656.3858246694335 1147.1089078249938 1013.333780165653 891.3196457163194 1123.078507057152 "></path><path d="M1334.9658833740214 378.9299301543199C1352.8231474933245 652.8736938473619 1136.8745994237097 1004.9319513230853 884.5892998096747 1113.173325791413C632.3040001956397 1221.4147002597408 414.7398410519936 1182.0875767891885 123.99644522665506 898.4885276022906C-166.7469505986836 614.8894784153927 -651.5785807374435 -18.884346235390694 -510.97900015195063 -248.1021103056985C-370.37941956645784 -477.31987437600617 414.3025813024442 -332.3884150310256 798.8744320370217 -201.75673993518853C1183.4462827715988 -71.12506483935147 1317.1086192547177 104.986166461278 1334.9658833740214 378.9299301543199C1352.8231474933245 652.8736938473619 1136.8745994237097 1004.9319513230853 884.5892998096747 1113.173325791413 "></path><path d="M1321.9803071400938 379.2225738279849C1339.5895537021847 649.3615630252903 1126.6402910224256 996.5301224805175 877.8589539030299 1103.268144525674C629.0776167836341 1210.0061665708304 414.5351820725389 1171.22525314848 127.82988896699669 891.5650796447337C-158.8754041385456 611.9049061409874 -636.9732616364895 -13.066504278535376 -498.32645300357285 -239.10068829231096C-359.6796443706563 -465.1348723060866 414.10399537506646 -322.216349896453 793.3345704049971 -193.39900362139144C1172.565145434928 -64.58165734632985 1304.371060578003 109.08358463067975 1321.9803071400938 379.2225738279849C1339.5895537021847 649.3615630252903 1126.6402910224256 996.5301224805175 877.8589539030299 1103.268144525674 "></path><path d="M1308.9945478006975 379.5152175016501C1326.3557768055757 645.8494322032186 1116.4057995156727 988.1282936379496 871.1284248909164 1093.362963259935C625.85105026616 1198.5976328819204 414.3303399876154 1160.3629295077722 131.66314960186946 884.6416316871769C-151.00404078387646 608.9203338665818 -622.3681256410041 -7.248662321679831 -485.6740889606638 -230.09926627892344C-348.98005228032355 -452.94987023616704 413.90522634222 -312.04428476188036 787.7945256675039 -185.04126730759435C1161.6838249927873 -58.03824985330834 1291.6333187958194 113.18100280008139 1308.9945478006975 379.5152175016501C1326.3557768055757 645.8494322032186 1116.4057995156727 988.1282936379496 871.1284248909164 1093.362963259935 "></path><path d="M1296.0089105316142 379.80789169289324C1313.1221219792797 642.3373318987251 1106.1714300792323 979.72649531296 864.3980179491155 1083.4578125117741C622.6246058189984 1187.1891297105883 414.1256199730042 1149.5006363846421 135.49653230705474 877.7182142471984C-143.1325553588947 605.9357921097546 -607.7628675752062 -1.4307898472461602 -473.0216028474423 -221.0978137479578C-338.2803381196783 -440.76483764866936 413.706579379686 -301.8721891097296 782.254603000323 -176.68350047621902C1150.8026266209597 -51.494811842708486 1278.8956990839483 117.27845148706137 1296.0089105316142 379.80789169289324C1313.1221219792797 642.3373318987251 1106.1714300792323 979.72649531296 864.3980179491155 1083.4578125117741 "></path><path d="M1283.023151192218 380.10053536655823C1299.888345082671 638.8252010766535 1095.9369385724794 971.324666470392 857.667488937002 1073.5526312460352C619.3980393015242 1175.7805960216779 413.9207778880809 1138.638312743934 139.32979294192762 870.7947662896418C-135.26119200422545 602.9512198353491 -593.1577315797209 4.387052109609158 -460.36923880453327 -212.09639173457026C-327.58074602934556 -428.5798355787498 413.5078103468395 -291.700123975157 776.7145582628295 -168.32576416242205C1139.9213061788193 -44.95140434968698 1266.1579573017648 121.37586965646301 1283.023151192218 380.10053536655823C1299.888345082671 638.8252010766535 1095.9369385724794 971.324666470392 857.667488937002 1073.5526312460352 "></path><path d="M1270.0375749582904 380.39317904022346C1286.6547512915313 635.3130702545818 1085.7026301711953 962.9228376278243 850.937143030357 1063.647449980296C616.1716558895189 1164.3720623327677 413.71611890862596 1127.7759891032258 143.16323668226926 863.8713183320847C-127.38964554408744 599.9666475609438 -578.5524124787669 10.204894066464703 -447.7166916561555 -203.09496972118274C-316.8809708335441 -416.3948335088302 413.309224419462 -281.5280588405844 771.1746966308051 -159.96802784862484C1129.040168842148 -38.40799685666548 1253.42039862505 125.47328782586476 1270.0375749582904 380.39317904022346C1286.6547512915313 635.3130702545818 1085.7026301711953 962.9228376278243 850.937143030357 1063.647449980296 "></path><path d="M1257.0519987243629 380.68582271388823C1273.421157500391 631.8009394325102 1075.468321769911 954.5210087852565 844.2067971237122 1053.742268714557C612.9452724775133 1152.9635286438572 413.51145992917145 1116.9136654625177 146.99668042261078 856.9478703745278C-119.51809908394955 596.9820752865385 -563.9470933778127 16.022736023320135 -435.06414450777766 -194.0935477077952C-306.1811956377426 -404.2098314389106 413.11063849208426 -271.35599370601176 765.6348349987804 -151.61029153482787C1118.1590315054766 -31.864589363643745 1240.6828399483352 129.5707059952665 1257.0519987243629 380.68582271388823C1273.421157500391 631.8009394325102 1075.468321769911 954.5210087852565 844.2067971237122 1053.742268714557 "></path><path d="M1244.0663614552795 380.97846638755345C1260.1875026740945 628.2888086104385 1065.2339523334706 946.1191799426888 837.4763901819113 1043.837087448818C609.7188280303517 1141.5549949549472 413.30673991456024 1106.0513418218095 150.83006312779617 850.0244224169714C-111.64661365896791 593.9975030121332 -549.341835312015 21.840577980175567 -422.4116583945561 -185.09212569440768C-295.4814814770973 -392.02482936899105 412.9119915295503 -261.18392857143914 760.0949123315995 -143.25255522103066C1107.2778331336488 -25.32118187062224 1227.945220236464 133.66812416466826 1244.0663614552795 380.97846638755345C1260.1875026740945 628.2888086104385 1065.2339523334706 946.1191799426888 837.4763901819113 1043.837087448818 "></path><path d="M1231.0806021158833 381.27111006121845C1246.9537257774864 624.7766777883669 1054.9994608267177 937.717351100121 830.7458611697975 1033.9319061830788C606.4922615128776 1130.146461266037 413.10189782963675 1095.1890181811016 154.66332376266905 843.1009744594146C-103.77525030429865 591.0129307377274 -534.7366993165297 27.658419937031113 -409.7592943516471 -176.09070368102016C-284.78188938676453 -379.8398272990715 412.7132224967038 -251.01186343686652 754.5548675941061 -134.89481890723357C1096.3965126915084 -18.777774377600622 1215.2074784542804 137.76554233407 1231.0806021158833 381.27111006121845C1246.9537257774864 624.7766777883669 1054.9994608267177 937.717351100121 830.7458611697975 1033.9319061830788 "></path><path d="M1218.0950869171122 381.5636926997271C1233.7201930215028 621.264485931139 1044.7652134605898 929.3154612223968 824.015576298309 1024.0266638821836C603.2659391360285 1118.7378665419703 412.89729988533827 1084.326633505237 158.49682853816694 836.1774654667015C-95.9036428090044 588.0282974281658 -520.1313191804193 33.47620085873041 -397.1066861681131 -167.08934270278894C-274.0820531558068 -367.6548862643082 412.51469760448254 -240.83985933745015 749.0150669972379 -126.53714362859273C1085.515436389993 -12.234427919735253 1202.4699808127218 141.8628994683155 1218.0950869171122 381.5636926997271C1233.7201930215028 621.264485931139 1044.7652134605898 929.3154612223968 824.015576298309 1024.0266638821836 "></path><path d="M1205.1094496480287 381.85636689097043C1220.4865381952063 617.7523856266455 1034.5308440241495 920.9136628974072 817.285169356508 1014.1215131340227C600.0394946888669 1107.3293633706382 412.69257987072706 1073.4643403821071 162.3302112433522 829.2540480267228C-88.03215738402264 585.0437556713387 -505.5260611146215 39.294073333163965 -384.45420005489154 -158.08789017182323C-263.3823389951616 -355.46985367681043 412.31605064194855 -230.6677636852994 743.475144330057 -118.17937679721751C1074.6342380181652 -5.690989909135624 1189.7323611008508 145.96034815529538 1205.1094496480287 381.85636689097043C1220.4865381952063 617.7523856266455 1034.5308440241495 920.9136628974072 817.285169356508 1014.1215131340227 "></path><path d="M1192.123812378945 382.14901056463543C1207.2528833689103 614.2402548045739 1024.2964745877089 912.5118340548393 810.554762414707 1004.2163318682838C596.813050241705 1095.920829681728 412.4878598561163 1062.602016741399 166.1635939485376 822.3306000691662C-80.160671959041 582.0591833969333 -490.92080304882364 45.1119152900194 -371.80171394167 -149.08646815843576C-252.68262483451633 -343.28485160689087 412.11740367941456 -220.4956985507268 737.9352216628761 -109.82164048342037C1063.7530396463376 0.8524175838859946 1176.9947413889797 150.057766324697 1192.123812378945 382.14901056463543C1207.2528833689103 614.2402548045739 1024.2964745877089 912.5118340548393 810.554762414707 1004.2163318682838 "></path><path d="M1179.1382361450176 382.44165423830043C1194.0192895777705 610.728123982502 1014.0621661864247 904.1100052122715 803.8244165080621 994.3111506025448C593.5866668296994 1084.5122959928178 412.28320087666134 1051.7396931006908 169.99703768887923 815.4071521116093C-72.28912549890299 579.0746111225278 -476.31548394786955 50.92975724687494 -359.14916679329224 -140.08504614504818C-241.9828496387148 -331.0998495369713 411.91881775203683 -210.32363341615417 732.3953600308514 -101.46390416962328C1052.871902309666 7.395825076907613 1164.257182712265 154.15518449409888 1179.1382361450176 382.44165423830043C1194.0192895777705 610.728123982502 1014.0621661864247 904.1100052122715 803.8244165080621 994.3111506025448 "></path><path d="M1166.1525378407778 382.7342979119654C1180.785573716318 607.2159931604303 1003.8277357148281 895.7081763697038 797.0939485311048 984.4059693368056C590.3601613473818 1073.1037623039076 412.0784198268941 1040.8773694599824 173.83035935890837 808.4837041540525C-64.4177011090776 576.0900388481223 -461.710286917228 56.74759920373026 -346.4967417152269 -131.0836241316607C-231.28319651322585 -318.91484746705174 411.7201097543466 -200.15156828158155 726.8553763285142 -93.10616785582613C1041.990642902682 13.939232569929118 1151.5195019652376 158.2526026635005 1166.1525378407778 382.7342979119654C1180.785573716318 607.2159931604303 1003.8277357148281 895.7081763697038 797.0939485311048 984.4059693368056 "></path><path d="M1153.1669005716942 383.0269721032088C1167.5519188900219 603.7038928559368 993.5933662783877 887.3063780447142 790.3635415893038 974.500818588645C587.13371690022 1061.6952591325755 411.8736998122831 1030.0150763368529 177.66374206409364 801.560286714074C-56.54621568409584 573.1054970912951 -447.1050288514302 62.56547167816393 -333.8442556020054 -122.082171600695C-220.58348235258057 -306.72981487955406 411.5214627918126 -189.9794726294308 721.3154536613333 -84.74840102445091C1031.1094445308543 20.482670580528975 1138.7818822533666 162.3500513504805 1153.1669005716942 383.0269721032088C1167.5519188900219 603.7038928559368 993.5933662783877 887.3063780447142 790.3635415893038 974.500818588645 "></path><path d="M1140.1812633026104 383.31958525929554C1154.3182640637256 600.1917315162873 983.3589968419474 878.9045186845683 783.6331346475029 964.5956068053276C583.9072724530586 1050.286694926087 411.6689797976719 1019.1527221785664 181.4971247692789 794.636808238939C-48.674730259114085 570.1208942993117 -432.49977078563234 68.38328311744135 -321.19176948878385 -113.08078010488566C-209.88376819193536 -294.54484332721256 411.3228158292786 -179.8074380124363 715.7755309941526 -76.39069522823195C1020.2282461590264 27.026047555972355 1126.0442625414955 166.447439002304 1140.1812633026104 383.31958525929554C1154.3182640637256 600.1917315162873 983.3589968419474 878.9045186845683 783.6331346475029 964.5956068053276 "></path><path d="M1127.1956260335269 383.6121678978044C1141.0846092374295 596.6795396590592 973.1246274055068 870.5026288068439 776.9027277057019 954.6903645044322C580.6808280058967 1038.8781002020205 411.46425978306115 1008.290337502702 185.3305074744643 787.7132992462259C-40.80324483413233 567.1362609897499 -417.89451271983455 74.20106403914042 -308.5392833755623 -104.07941912665439C-199.1840540312901 -282.35990229244925 411.12416886674464 -169.63543391301994 710.2356083269717 -68.03301994959111C1009.3470477871988 33.56939401383772 1113.3066428296245 170.5447961365495 1127.1956260335269 383.6121678978044C1141.0846092374295 596.6795396590592 973.1246274055068 870.5026288068439 776.9027277057019 954.6903645044322 "></path><path d="M1114.2098666941306 383.90487260662564C1127.8508323408207 593.1674698721438 962.8901358987539 862.1008609994324 770.1721986935884 944.7852442738495C577.4542614884226 1027.4696275482665 411.25941769813744 997.42807489715 189.16376810933707 780.7899123238253C-32.931881479463186 564.1517497505006 -403.2893767243492 80.01896703115221 -295.8869193326533 -95.07793607811061C-188.48446194095732 -270.17483918737344 410.9253998338984 -159.46330774329107 704.6955635894783 -59.67522260063777C998.4657273450584 40.11286254201559 1100.5689010474407 174.6422753411075 1114.2098666941306 383.90487260662564C1127.8508323408207 593.1674698721438 962.8901358987539 862.1008609994324 770.1721986935884 944.7852442738495 "></path><path d="M1101.2243514953595 384.19751628029076C1114.617299584837 589.6553390500721 952.655888532626 853.6990321568646 763.4419138220999 934.8800630081105C574.2279391115735 1016.0610938593563 411.0548197538392 986.5657512564421 192.99727288483496 773.8664643662687C-25.06027398416893 561.1671774760953 -388.68399658823887 85.83680898800776 -283.23431114911926 -86.07651406472309C-177.7846257099996 -257.9898371174539 410.7268749416769 -149.29124260871845 699.1557629926101 -51.31748628684062C987.5846510435433 46.65627003503721 1087.8314034058822 178.73969351050926 1101.2243514953595 384.19751628029076C1114.617299584837 589.6553390500721 952.655888532626 853.6990321568646 763.4419138220999 934.8800630081105 "></path><path d="M1088.2386837086979 384.4900684012214C1101.3836142409627 586.1431166752661 942.4214885786075 845.2971117615625 756.7114763627205 924.9747901896371C571.0014641468338 1004.6524686177117 410.85006922164985 975.7033360629996 196.83062507244222 766.9429248559775C-17.188819076765412 558.1825136489556 -374.07876904001915 91.65455939212882 -270.5818555534758 -77.07518360406993C-167.0849420669325 -245.8049266002687 410.5281974615648 -139.11926902688015 693.6158098078511 -42.959841525777904C976.7034221541373 53.19958597532445 1075.0937531764328 182.83702012717663 1088.2386837086979 384.4900684012214C1101.3836142409627 586.1431166752661 942.4214885786075 845.2971117615625 756.7114763627205 924.9747901896371 "></path><path d="M1075.2529548868797 384.7827120748864C1088.1498678619323 582.6309858531945 932.1870275894328 836.8952829189948 749.9809778681852 915.0696089238979C567.7749281469376 993.2439349288013 410.64525765430426 964.8410124222912 200.66391622489323 760.0194768984206C-9.317425204518031 555.19794137455 -359.4736025269557 97.47240134898425 -257.92946099298865 -68.07376159068241C-156.38531945902162 -233.61992453034907 410.32945894629665 -128.94720389230758 688.0757955879358 -34.60210521198081C965.8221322295751 59.74299346834596 1062.3560419118273 186.93443829657826 1075.2529548868797 384.7827120748864C1088.1498678619323 582.6309858531945 932.1870275894328 836.8952829189948 749.9809778681852 915.0696089238979 "></path><path d="M1062.2674396881087 385.0753557485516C1074.9163351059485 579.1188550311231 921.9527802233049 828.493454076427 743.2506929966967 905.1644276581592C564.5486057700887 981.8354012398913 410.4406597100059 953.9786887815835 204.4974210003911 753.096028940864C-1.4458177092237747 552.2133691001447 -344.8682223908454 103.2902433058398 -245.27685280945462 -59.07233957729488C-145.68548322806384 -221.4349224604295 410.13093405407506 -118.77513875773491 682.5359949910674 -26.244368898183666C954.94105592806 66.28640096136758 1049.6185442702688 191.03185646598013 1062.2674396881087 385.0753557485516C1074.9163351059485 579.1188550311231 921.9527802233049 828.493454076427 743.2506929966967 905.1644276581592 "></path><path d="M1049.281802419025 385.3679994222165C1061.6826802796525 575.6067242090512 911.7184107868643 820.0916252338591 736.5202860548957 895.2592463924202C561.3221613229268 970.4268675509811 410.2359396953949 943.1163651408751 208.3308037055764 746.1725809833074C6.425667715757982 549.2287968257392 -330.26296432504756 109.10808526269523 -232.6243666962331 -50.07091756390736C-134.98576906741863 -209.24992039050994 409.93228709154107 -108.60307362316229 676.9960723238867 -17.886632584386575C944.0598575562321 72.8298084543892 1036.8809245583977 195.12927463538176 1049.281802419025 385.3679994222165C1061.6826802796525 575.6067242090512 911.7184107868643 820.0916252338591 736.5202860548957 895.2592463924202 "></path><path d="M1036.2961651499415 385.6606430958816C1048.4490254533562 572.0945933869796 901.4840413504239 811.6897963912913 729.7898791130947 885.3540651266812C558.0957168757652 959.0183338620707 410.0312196807838 932.254041500167 212.16418641076177 739.2491330257503C14.297153140739624 546.2442245513339 -315.6577062592497 114.92592721955066 -219.97188058301157 -41.06949555051983C-124.28605490677336 -197.06491832059038 409.7336401290071 -98.43100848858967 671.4561496567057 -9.528896270589485C933.1786591844043 79.3732159474107 1024.1433048465267 199.22669280478362 1036.2961651499415 385.6606430958816C1048.4490254533562 572.0945933869796 901.4840413504239 811.6897963912913 729.7898791130947 885.3540651266812 "></path><path d="M1023.310527880858 385.9532867695466C1035.21537062706 568.5824625649079 891.2496719139835 803.2879675487234 723.0594721712935 875.4488838609418C554.8692724286034 947.6098001731605 409.8264996661728 921.3917178594588 215.99756911594704 732.3256850681937C22.168638565721267 543.2596522769285 -301.05244819345194 120.7437691764062 -207.31939446979004 -32.06807353713231C-113.58634074612814 -184.87991625067076 409.5349931664732 -88.25894335401705 665.9162269895248 -1.171159956792394C922.2974608125767 85.91662344043232 1011.4056851346556 203.32411097418526 1023.310527880858 385.9532867695466C1035.21537062706 568.5824625649079 891.2496719139835 803.2879675487234 723.0594721712935 875.4488838609418 "></path><path d="M1010.3248906117742 386.2459609607897C1021.9817158007638 565.0703622604144 881.0153024775432 794.8861692237338 716.3290652294925 865.543733112781C551.6428279814418 936.2012970018284 409.62177965156184 910.529424736329 219.83095182113243 725.402267628215C30.040123990703023 540.2751105201012 -286.4471901276541 126.56164165083976 -194.66690835656846 -23.066621006166656C-102.88662658548287 -172.69488366317307 409.33634620393923 -78.0868477018663 660.3763043223441 7.186606874582878C911.4162624407488 92.46006145103206 998.6680654227846 207.42155966116513 1010.3248906117742 386.2459609607897C1021.9817158007638 565.0703622604144 881.0153024775432 794.8861692237338 716.3290652294925 865.543733112781 "></path><path d="M997.3392533426907 386.5386046344548C1008.7480609744675 561.5582314383428 870.7809330411028 786.484340381166 709.5986582876913 855.638551847042C548.4163835342802 924.7927633129182 409.41705963695074 899.6671010956206 223.66433452631782 718.4788196706584C37.91160941568478 537.2905382456958 -271.84193206185626 132.3794836076952 -182.01442224334693 -14.065198992779187C-92.1869124248376 -160.5098815932535 409.13769924140524 -67.91478256729368 654.8363816551632 15.544343188379969C900.5350640689212 99.00346894405368 985.9304457109135 211.51897783056688 997.3392533426907 386.5386046344548C1008.7480609744675 561.5582314383428 870.7809330411028 786.484340381166 709.5986582876913 855.638551847042 "></path><path d="M984.353646591185 386.83124830811994C995.5144366657496 558.0461006162711 860.5465941222405 778.0825115385983 702.8682818634684 845.733370581303C545.1899696046967 913.3842296240077 409.2123701399179 888.8047774549127 227.49774774908133 711.5553717131015C45.78312535824466 534.3059659712904 -257.2366434784803 138.19732556455074 -169.36190561254728 -5.063776979391605C-81.48716774661426 -148.32487952333395 408.9390827964495 -57.742717432721065 649.2964895055604 23.902079502177116C889.6538962146715 105.5468764370753 973.1928565166206 215.61639599996863 984.353646591185 386.83124830811994C995.5144366657496 558.0461006162711 860.5465941222405 778.0825115385983 702.8682818634684 845.733370581303 "></path><path d="M971.3680093221014 387.1238309466287C982.2807818394535 554.5339087590432 850.3122246858002 769.6806216608741 696.1378749216676 835.8281282804078C541.9635251575351 901.9756348999413 409.0076501253069 877.9423927790481 231.33113045426649 704.6318627203887C53.65461078322642 531.3213326617288 -242.6313854126825 144.01510648624992 -156.70941949932575 3.9375839988396137C-70.78745358596899 -136.13993848857064 408.7404358339155 -47.570713333304695 643.7565668383795 32.25975478081796C878.7726978428436 112.09022289494055 960.4552368047496 219.71375313421413 971.3680093221014 387.1238309466287C982.2807818394535 554.5339087590432 850.3122246858002 769.6806216608741 696.1378749216676 835.8281282804078 "></path><path d="M958.3823720530177 387.4164746202937C969.0471270131573 551.0217779369716 840.0778552493598 761.2787928183063 689.4074679798664 825.9229470146688C538.7370807103734 890.5671012110311 408.8029301106958 867.0800691383401 235.16451315945199 697.7084147628316C61.52609620820806 528.3367603873234 -228.02612734688466 149.83294844310535 -144.05693338610422 12.939006012227196C-60.087739425323775 -123.95493641865107 408.5417888713815 -37.398648198732076 638.2166441711988 40.61749109461505C867.891499471016 118.63363038796217 947.7176170928785 223.81117130361588 958.3823720530177 387.4164746202937C969.0471270131573 551.0217779369716 840.0778552493598 761.2787928183063 689.4074679798664 825.9229470146688 "></path><path d="M945.3967347839341 387.7091182939587C955.8134721868612 547.5096471148998 829.8434858129194 752.8769639757384 682.6770610380654 816.0177657489298C535.5106362632116 879.1585675221208 408.5982100960848 856.2177454976318 238.99789586463726 690.784966805275C69.3975816331897 525.3521881129179 -213.42086928108682 155.6507903999609 -131.4044472728827 21.940428025614665C-49.388025264678504 -111.76993434873145 408.34314190884766 -27.226583064159456 632.6767215040179 48.97522740841214C857.0103010991882 125.17703788098379 934.9799973810073 227.90858947301763 945.3967347839341 387.7091182939587C955.8134721868612 547.5096471148998 829.8434858129194 752.8769639757384 682.6770610380654 816.0177657489298 "></path><path d="M932.4110975148506 388.0017619676239C942.5798173605649 543.9975162928283 819.6091163764788 744.4751351331706 675.9466540962644 806.1125844831906C532.28419181605 867.7500338332106 408.39349008147383 845.3554218569238 242.83127856982264 683.8615188477183C77.26906705817146 522.3676158385125 -198.81561121528898 161.46863235681633 -118.7519611596611 30.941850039002247C-38.68831110403323 -99.58493227881189 408.14449494631367 -17.054517929586837 627.136798836837 57.33296372220923C846.1291027273605 131.7204453740054 922.2423776691362 232.00600764241938 932.4110975148506 388.0017619676239C942.5798173605649 543.9975162928283 819.6091163764788 744.4751351331706 675.9466540962644 806.1125844831906 "></path><path d="M919.4253992106107 388.2944056412889C929.3461014991126 540.4853854707566 809.3746859048822 736.0733062906029 669.2161861193072 796.2074032174517C529.057686333732 856.3415001443004 408.1887090317066 834.4930982162157 246.66460023985178 676.9380708901613C85.14049144799696 519.3830435641071 -184.21041418464745 167.28647431367176 -106.09953608159583 39.943272052389716C-27.988657978544268 -87.39993020889233 407.94578694862344 -6.882452795014217 621.5968151345 65.69070003600638C835.2478433203764 138.2638528670269 909.5046969221087 236.10342581182113 919.4253992106107 388.2944056412889C929.3461014991126 540.4853854707566 809.3746859048822 736.0733062906029 669.2161861193072 796.2074032174517 "></path><path d="M906.4398229766834 388.587079832532C916.1125077079726 536.973285166263 799.1403775035981 727.6715079656133 662.4858402126624 786.3022524692908C525.8313029217267 844.9329969729683 407.98405005225175 823.6308050930857 250.49804398019342 670.0146534501828C93.01203790813497 516.3985018072798 -169.60509508369336 173.10434678810543 -93.44698893321805 48.94472458335537C-17.288882782742746 -75.21489762139464 407.7472010212458 3.2896428571365277 616.0569535024752 74.04846686738159C824.3667059837048 144.80729087762666 896.7671382453941 240.20087449880089 906.4398229766834 388.587079832532C916.1125077079726 536.973285166263 799.1403775035981 727.6715079656133 662.4858402126624 786.3022524692908 "></path><path d="M893.4541857075997 388.879723506197C902.8788528816763 533.4611543441915 788.9060080671577 719.2696791230455 655.7554332708614 776.3970712035518C522.604858474565 833.5244632840581 407.77933003764076 812.7684814523777 254.3314266853787 663.0912054926262C100.88352333311661 513.4139295328745 -154.99983701789552 178.92218874496086 -80.79450281999652 57.94614659674289C-6.589168622097532 -63.02989555147508 407.54855405871194 13.461707991709147 610.5170308352945 82.40620318117874C813.485507611877 151.35069837064827 884.0295185335228 244.29829266820275 893.4541857075997 388.879723506197C902.8788528816763 533.4611543441915 788.9060080671577 719.2696791230455 655.7554332708614 776.3970712035518 "></path><path d="M880.4684568857817 389.172367179862C889.6451065026458 529.9490235221198 778.671547077983 710.8678502804776 649.0249347763258 766.4918899378126C519.378322474669 822.1159295951479 407.5745184702953 801.9061578116693 258.1647178378297 656.1677575350692C108.754917205364 510.42935725846894 -140.39467050483205 184.7400307018163 -68.14210825950937 66.94756861013042C4.110453985813365 -50.84489348155546 407.3498155434436 23.633773126281767 604.9770166153792 90.76393949497583C802.6042176873148 157.8941058636699 871.2918072689174 248.39571083760438 880.4684568857817 389.172367179862C889.6451065026458 529.9490235221198 778.671547077983 710.8678502804776 649.0249347763258 766.4918899378126 "></path><path d="M867.4829416870107 389.464980335949C876.4115737466623 526.43686218247 768.4372997118548 702.4659909203317 642.2946499048373 756.5866781544955C516.1520000978198 810.7073653886596 407.3699205259968 791.0438036533833 261.99822261332747 649.2442790599343C116.62652470065814 507.4447544664854 -125.78929036872177 190.55784214109372 -55.48950007597534 75.94896010593982C14.81029021677108 -38.65992192921402 407.1512906512221 33.80580774327626 599.4372160185109 99.1216452911948C791.7231413857994 164.43748283911327 858.5543096273589 252.49309848942812 867.4829416870107 389.464980335949C876.4115737466623 526.43686218247 768.4372997118548 702.4659909203317 642.2946499048373 756.5866781544955 "></path><path d="M854.4972739003488 389.757593492036C863.1778884027879 522.9247008428202 758.2028997578363 694.0641315601856 635.5642124454582 746.6814663711784C512.92552513308 799.2988011821712 407.1651699938077 780.181449495097 265.83157480093473 642.3208005847994C124.49797960806177 504.46015167450184 -111.18406282050205 196.37565358037102 -42.83704448033194 84.95035160174922C25.509973859838226 -26.474950376872584 406.95261317111 43.977842360270756 593.8972628337519 107.47935108741376C780.8419124963937 170.98085981455677 845.8166593979097 256.59048614125163 854.4972739003488 389.757593492036C863.1778884027879 522.9247008428202 758.2028997578363 694.0641315601856 635.5642124454582 746.6814663711784 "></path><path d="M841.5115450785308 390.05029820085724C849.9441420237574 519.4126310559049 747.9684387686616 685.6623637527741 628.8337139509229 736.7763461405957C509.698989133184 787.8903285284171 406.96035842646234 769.3191868895451 269.66486595338574 635.397413662399C132.36937348030915 501.47564043525267 -96.57889630743858 202.1935565723827 -30.18464991984473 93.951834650293C36.209596467749066 -14.289887271796772 406.7538746558416 54.149968529999626 588.3572486138366 115.8371484363671C769.9606225718317 177.52432834273463 833.0789481333043 260.68796534580963 841.5115450785308 390.05029820085724C849.9441420237574 519.4126310559049 747.9684387686616 685.6623637527741 628.8337139509229 736.7763461405957 "></path><path d="M828.5260298797596 390.34294187452224C836.7106092677736 515.9005002338332 737.7341914025337 677.2605349102064 622.1034290794342 726.8711648748567C506.4726667563348 776.4817948395066 406.75576048216385 758.456863248837 273.4983707288835 628.473965704842C140.2409809756034 498.49106816084736 -81.97351617132824 208.01139852923825 -17.532041736310703 102.95325666368052C46.90943269870684 -2.1048852018772095 406.55534976362026 64.32203366457225 582.8174480169683 124.19488475016419C759.0795462703163 184.06773583575625 820.3414504917457 264.7853835152114 828.5260298797596 390.34294187452224C836.7106092677736 515.9005002338332 737.7341914025337 677.2605349102064 622.1034290794342 726.8711648748567 "></path><path d="M815.5403010579416 390.6355245130311C823.4768628887432 512.3883083766053 727.499730413359 668.8586450324824 615.3729305848988 716.9659225739613C503.2461307564388 765.0732001154404 406.5509489148184 747.5944785729725 277.3316618813345 621.5504567121292C148.11237484785067 495.5064348512856 -67.36834965826483 213.82917945093743 -4.87964717582355 111.9546176419118C57.60905530661773 10.08005583288616 406.3566112483519 74.49403776398862 577.277433797053 132.5525600288051C748.1982563457541 190.61108229362156 807.6037392271401 268.8827406494569 815.5403010579416 390.6355245130311C823.4768628887432 512.3883083766053 727.499730413359 668.8586450324824 615.3729305848988 716.9659225739613 "></path><path d="M802.5546637888581 390.9281681866962C810.2432080624469 508.8761775545337 717.2653609769186 660.4568161899145 608.6425236430978 707.0607413082223C500.0196863092772 753.66466642653 406.3462289002073 736.7321549322646 281.1650445865198 614.6270087545723C155.98386027283243 492.52186257688027 -52.76309159246699 219.64702140779286 7.772838937397978 120.95603965529932C68.30876946726295 22.265057902805722 406.157964285818 84.66610289856123 571.7375111298722 140.91029634260218C737.3170579739262 197.15448978664313 794.866119515269 272.9801588188586 802.5546637888581 390.9281681866962C810.2432080624469 508.8761775545337 717.2653609769186 660.4568161899145 608.6425236430978 707.0607413082223 "></path><path d="M789.569148590087 391.2208118603612C797.0096753064634 505.36404673246193 707.0311136107905 652.0549873473467 601.9122387716092 697.1555600424833C496.79336393242784 742.2561327376197 406.1416309559088 725.8698312915564 284.9985493620177 607.7035607970156C163.85546776812663 489.53729030247484 -38.15771145635665 225.4648633646484 20.425447120932006 129.95746166868685C79.00860569822072 34.450059972725285 405.95943939359654 94.83816803313385 566.1977105330038 149.26803265639933C726.4359816724111 203.69789727966474 782.1286218737105 277.0775769882604 789.569148590087 391.2208118603612C797.0096753064634 505.36404673246193 707.0311136107905 652.0549873473467 601.9122387716092 697.1555600424833 "></path><path d="M776.583450285847 391.5134555340262C783.7759594450108 501.8519159103903 696.7966831391939 643.653158504779 595.1817707946519 687.2503787767444C493.56685845011 730.8475990487096 405.93684990614156 715.0075076508483 288.8318710320468 600.7801128394589C171.72689215795208 486.5527180280694 -23.552514425715117 231.28270532150384 33.077872198997284 138.95888368207437C89.70825882370968 46.63506204264485 405.7607313959063 105.01023316770647 560.6577268306667 157.62576897019642C715.5547222654272 210.24130477268636 769.3909411266832 281.1749951576621 776.583450285847 391.5134555340262C783.7759594450108 501.8519159103903 696.7966831391939 643.653158504779 595.1817707946519 687.2503787767444 "></path><path d="M763.5977519816072 391.8060686901131C770.5422435835585 498.3397545707405 686.5622526675971 635.2512991446329 588.4513028176947 677.345166993427C490.3403529677921 719.4390348422212 405.7320688563743 704.1451534925619 292.66519270207596 593.8566343643239C179.59831654777759 483.5681152360859 -8.947317395073526 237.10051676078115 45.73029727706262 147.96027517788377C100.4079119491987 58.820033594986285 405.56202339821607 115.18226778470097 555.1177431283296 165.98347476641538C704.6734628584431 216.7846817481298 756.6532603796559 285.27238280948563 763.5977519816072 391.8060686901131C770.5422435835585 498.3397545707405 686.5622526675971 635.2512991446329 588.4513028176947 677.345166993427 "></path><path d="M750.6121757476799 392.09877339893444C757.3086497924185 494.82768478382513 676.327944266313 626.8495313372214 581.7209569110499 667.4400467628443C487.11396955578675 708.0305621884672 405.5274098769196 693.2828908870101 296.4986364424175 586.9332474419234C187.46986300791554 480.5836039968367 5.658001705880565 242.91841975279294 58.382844425440396 156.96175822642755C111.10768714500023 71.00509670006215 405.36343747083845 125.35439395442984 549.577881496305 174.34127211536872C693.7923255217717 223.32815027630767 743.9157017029411 289.36986201404375 750.6121757476799 392.09877339893444C757.3086497924185 494.82768478382513 676.327944266313 626.8495313372214 581.7209569110499 667.4400467628443 "></path><path d="M737.6264774434399 392.3913560374432C744.0749339309662 491.31549292659724 666.0935137947164 618.4476414594974 574.9904889340926 657.534804461949C483.8874640734688 696.6219674644007 405.32262882715213 682.4205062111456 300.3319581124466 580.0097384492103C195.34128739774098 477.598970687275 20.263198736522156 248.73620067449212 71.03526950350567 165.96311920465882C121.80734027048919 83.19003773482547 405.1647294731483 135.5263980538462 544.0378977939679 182.69894739400962C682.9110661147876 229.87149673417298 731.1780209559137 293.46721914828913 737.6264774434399 392.3913560374432C744.0749339309662 491.31549292659724 666.0935137947164 618.4476414594974 574.9904889340926 657.534804461949 "></path><path d="M724.6409012095125 392.6839997111083C730.8413401398262 487.8033621045256 655.8592053934321 610.0458126169295 568.2601430274478 647.6296231962101C480.6610806614634 685.2134337754906 405.1179698476974 671.5581825704376 304.16540185278814 573.0862904916537C203.212833857879 474.6143984128696 34.86851783747619 254.5540426313476 83.68781665188345 174.9645412180463C132.5071154662907 95.37503980474503 404.9661435457706 145.69846318841883 538.4980361619433 191.0566837078067C672.0299287781161 236.4149042271946 718.4404622791989 297.5646373176909 724.6409012095125 392.6839997111083C730.8413401398262 487.8033621045256 655.8592053934321 610.0458126169295 568.2601430274478 647.6296231962101 "></path><path d="M711.655263940429 392.9766433847733C717.60768531353 484.29123128245396 645.6248359569918 601.6439837743617 561.5297360856467 637.7244419304709C477.4346362143017 673.8049000865802 404.9132498330864 660.6958589297294 307.9987845579735 566.1628425340969C211.08431928286063 471.6298261384643 49.47377590327403 260.3718845882031 96.34030276510498 183.96596323143382C143.20682962693593 107.56004187466459 404.7674965832366 155.87052832299145 532.9581134947624 199.4144200216038C661.1487304062883 242.95831172021616 705.7028425673278 301.66205548709263 711.655263940429 392.9766433847733C717.60768531353 484.29123128245396 645.6248359569918 601.6439837743617 561.5297360856467 637.7244419304709 "></path><path d="M698.6696266713453 393.26930231722736C704.3740304872338 480.7791157191714 635.3904665205514 593.242170190583 554.7993291438456 627.819275923521C474.2081917671401 662.3963816564591 404.7085298184754 649.8335505478103 311.8321672631589 559.2394098353292C218.9558047078424 468.6452691228478 64.07903396907187 266.1897418038476 108.99278887832651 192.9674005036104C153.9065437875812 119.74505920337322 404.5688496207026 166.04260871635313 527.4181908275816 207.77217159419C650.2675320344606 249.50173447202684 692.9652228554568 305.75948891528344 698.6696266713453 393.26930231722736C704.3740304872338 480.7791157191714 635.3904665205514 593.242170190583 554.7993291438456 627.819275923521 "></path><path d="M685.6839894022617 393.56191547331434C691.1403756609377 477.2669543795216 625.156097084111 584.840310830437 548.0689222020447 617.9140641402039C470.98174731997847 650.9878174499706 404.50380980386444 638.971196389524 315.6655499683442 552.3159313601943C226.82729013282415 465.6606663308644 78.68429203486971 272.00755324312496 121.64527499154809 201.9687919994198C164.6062579482264 131.9300307557147 404.37020265816864 176.21464333334762 521.8782681604007 216.12987739040898C639.3863336626328 256.0451114474703 680.2276031435857 309.85687656710707 685.6839894022617 393.56191547331434C691.1403756609377 477.2669543795216 625.156097084111 584.840310830437 548.0689222020447 617.9140641402039 "></path><path d="M672.6984131683342 393.8545744057684C677.9067818697978 473.75483881623904 614.9217886828269 576.4384972466582 541.3385762953999 608.008898133254C467.755363907973 639.5792990198495 404.2991508244096 628.108888007605 319.4989937086858 545.3924986614265C234.69883659296204 462.676109315248 93.28961113582375 277.8254104587695 134.29782213992587 210.9702292715964C175.30603314402794 144.11504808442334 404.171616730791 186.3867237267093 516.3384065283761 224.48762896299513C628.5051963259613 262.58853419928096 667.4900444668708 313.9543099952979 672.6984131683342 393.8545744057684C677.9067818697978 473.75483881623904 614.9217886828269 576.4384972466582 541.3385762953999 608.008898133254 "></path><path d="M659.7126843465163 394.1472180794335C664.6730354907672 470.2427079941674 604.687327693652 568.0366684040905 534.6080778008645 598.1037168675149C464.5288279080769 628.1707653309393 404.09433925706423 617.2465643668969 323.3322848611368 538.4690507038697C242.57023046520942 459.6915370408426 107.89477764888721 283.64325241562494 146.95021670041302 219.97165128498392C186.00565575193878 156.3000501543429 403.97287821552266 196.55878886128193 510.79839230846096 232.84536527679222C617.6239064013992 269.1319416923025 654.7523332022653 318.0517281646996 659.7126843465163 394.1472180794335C664.6730354907672 470.2427079941674 604.687327693652 568.0366684040905 534.6080778008645 598.1037168675149 "></path><path d="M646.7270623362217 394.4398617530985C651.43939592326 466.73057717209576 594.4529735160007 559.6348395615228 527.8776861178526 588.1985356017759C461.30239871970434 616.7622316420291 403.8896345012422 606.3842407261889 327.16568282511116 531.5456027463131C250.44173114898018 456.7069647664373 122.50005097347412 289.46109437248043 159.6027180724236 228.97307329837145C196.7053851713731 168.48505222426246 403.77424651177785 206.73085399585455 505.2584849000691 241.20310159058937C606.7427232883604 275.67534918532414 642.0147287491833 322.1491463341014 646.7270623362217 394.4398617530985C651.43939592326 466.73057717209576 594.4529735160007 559.6348395615228 527.8776861178526 588.1985356017759 "></path><path d="M633.7414403259272 394.7325054267635C638.205756355753 463.2184463500241 584.2186193383493 551.2330107189549 521.1472944348405 578.2933543360368C458.0759695313318 605.3536979531189 403.6849297454203 595.5219170854807 330.9990807890856 524.6221547887562C258.31323183275094 453.72239249203176 137.10532429806102 295.2789363293359 172.2552194444342 237.97449531175897C207.40511459080744 180.67005429418202 403.5756148080329 216.90291913042716 499.71857749167725 249.56083790438646C595.8615401753216 282.2187566783457 629.2771242961013 326.2465645035031 633.7414403259272 394.7325054267635C638.205756355753 463.2184463500241 584.2186193383493 551.2330107189549 521.1472944348405 578.2933543360368 "></path><path d="M620.7558335744217 395.0251491004286C624.972132047035 459.7063155279525 573.984280419487 542.8311818763871 514.4169180106177 568.3881730702979C454.8495556017483 593.9451642642085 403.4802402483874 584.6595934447726 334.8324940118491 517.6987068311995C266.1847477753108 450.73782021762634 151.71061288143693 301.09677828619135 184.90773607523386 246.9759173251465C218.10485926903078 192.85505636410164 403.37699836307706 227.07498426499978 494.1786853420746 257.91857421818355C584.9803723210721 288.7621641713673 616.5395351018084 330.3439826729048 620.7558335744217 395.0251491004286C624.972132047035 459.7063155279525 573.984280419487 542.8311818763871 514.4169180106177 568.3881730702979 "></path><path d="M607.770196305338 395.3177622565156C611.7384772207388 456.1941541883027 563.7499109830467 534.4293225162412 507.68651106881657 558.4829612869806C451.6231111545866 582.5366000577202 403.27552023377643 573.7972392864863 338.66587671703445 510.77522835606464C274.0562332002925 447.7532174256428 166.31587094723477 306.9145897254687 197.56022218845538 255.9773088209559C228.80457342967605 205.04002791644308 403.1783514005431 237.24701888199434 488.63876267489377 266.2762800144026C574.0991739492442 295.3055411468108 603.8019153899372 334.44137032472844 607.770196305338 395.3177622565156C611.7384772207388 456.1941541883027 563.7499109830467 534.4293225162412 507.68651106881657 558.4829612869806 "></path><path d="M594.7845285186763 395.6104059301806C598.5047918768645 452.68202336623096 553.5155110290281 526.0274936736733 500.95607360943745 548.5777800212417C448.39663618984673 571.1280663688099 403.0707697015872 562.9349156457781 342.49922890464165 503.8517803985078C281.9276881076961 444.7686451512375 180.9210984954545 312.7324316823242 210.21267778409884 264.9787308343434C239.50425707274314 217.22502998636264 402.9796739204311 247.41908401656696 483.0988094901347 274.63401632819966C563.2179450598384 301.8489486398324 591.064265160488 338.5387884941302 594.7845285186763 395.6104059301806C598.5047918768645 452.68202336623096 553.5155110290281 526.0274936736733 500.95607360943745 548.5777800212417 "></path><path d="M581.7989217671708 395.9030496038456C585.2711675681464 449.1698925441593 543.2811721101657 517.6256648311055 494.2256971852146 538.6725987555026C445.17022226026324 559.7195326798997 402.86608020455435 552.07259200507 346.33264212740517 496.92833244095095C289.799204050256 441.78407287683194 195.52638707883045 318.55027363917964 222.8651944148985 273.98015284773095C250.20400175096654 229.4100320562822 402.7810574754752 257.5911491511396 477.55891734053193 282.99175264199675C552.3367772055888 308.39235613285393 578.3266759661951 342.6362066635319 581.7989217671708 395.9030496038456C585.2711675681464 449.1698925441593 543.2811721101657 517.6256648311055 494.2256971852146 538.6725987555026 "></path><path d="M568.8132844980871 396.19569327751066C572.0375127418503 445.6577617220877 533.0468026737253 509.22383598853776 487.4952902434135 528.7674174897636C441.94377781310163 548.3109989909894 402.66136018994325 541.2102683643618 350.1660248325905 490.0048844833942C297.6706894752377 438.79950060242663 210.13164514462824 324.3681155960351 235.51768052812002 282.9815748611185C260.9037159116118 241.59503412620177 402.58241051294135 267.7632142857122 472.01899467335113 291.34948895579384C541.4555788337609 314.93576362587555 565.5890562543241 346.73362483293363 568.8132844980871 396.19569327751066C572.0375127418503 445.6577617220877 533.0468026737253 509.22383598853776 487.4952902434135 528.7674174897636 "></path><path d="M555.8276472290036 396.48832169238665C558.8038579155541 442.145615641227 522.812433237285 500.82199188718084 480.7648833016124 518.8622209652355C438.7173333659399 536.9024500432902 402.45664017533227 530.3479294648647 353.9994075377758 483.0814212670484C305.5421749002194 435.81491306923215 224.73690321042608 330.18594229410155 248.17016664134155 291.98298161571694C271.603430072257 253.78002093733232 402.38376355040737 277.93526416149575 466.4790720061703 299.70721001080193C530.5743804619333 321.4791558601081 552.851436542453 350.8310277435463 555.8276472290036 396.48832169238665C558.8038579155541 442.145615641227 522.812433237285 500.82199188718084 480.7648833016124 518.8622209652355 "></path><path d="M542.8419947011308 396.7809653660517C545.5701878304689 438.63348481915534 512.5780485420555 492.420163044613 474.0344611010223 508.9570396994965C435.49087365998923 525.4939163543798 402.2519049019322 519.4856058241566 357.8327749841721 476.1579733094917C313.4136450664121 432.8303407948267 239.34214601743486 336.003784250957 260.822637495774 300.98440362910446C282.30312897411324 265.9650230072519 402.1851013290843 288.1073292960684 460.93913408020035 308.064946324599C519.6931668313164 328.02256335312967 540.1138015717929 354.92844591294806 542.8419947011308 396.7809653660517C545.5701878304689 438.63348481915534 512.5780485420555 492.420163044613 474.0344611010223 508.9570396994965 "></path><path d="M529.8563726908362 397.0735937809277C532.3365482629617 435.12133873829464 502.3436943644042 484.0183189432562 467.3040694180104 499.0518431749683C432.26444447161657 514.0853674066806 402.04720014611024 508.62326692465945 361.66617294814654 469.2345100931458C321.28514575018283 429.84575326163224 253.94741934202176 341.8216109490234 273.4751388677846 309.9858103837029C293.0028583935475 278.1500098183824 401.98646962533945 298.27937917185193 455.3992266718086 316.42266737960705C508.8119837182777 334.5659555873622 527.3761971187107 359.02584882356075 529.8563726908362 397.0735937809277C532.3365482629617 435.12133873829464 502.3436943644042 484.0183189432562 467.3040694180104 499.0518431749683 "></path><path d="M516.8707354217527 397.36625271338175C519.1028934366656 431.60922317501206 492.1093249279637 475.6165053594775 460.5736624762094 489.1466771680184C429.03800002445496 502.6768489765594 401.8424801314992 497.76095854274035 365.49955565333187 462.3110773943781C329.15663117516453 426.8611962460159 268.55267740781954 347.63946816466796 286.1276249810062 318.9872476558795C303.7025725541928 290.335027147091 401.7878226628055 308.4514595652136 449.8593040046277 324.78041895219326C497.93078534644985 341.10937833917285 514.6385774068397 363.12328225175156 516.8707354217527 397.36625271338175C519.1028934366656 431.60922317501206 492.1093249279637 475.6165053594775 460.5736624762094 489.1466771680184 "></path><path d="M503.885098152669 397.65889638704687C505.8692386103694 428.0970923529404 481.87495549152334 467.21467651690966 453.8432555344083 479.24149590227944C425.8115555772933 491.2683152876491 401.6377601168882 486.8986349020322 369.33293835851725 455.3876294368214C337.0281166001463 423.87662397161046 283.1579354736174 353.45731012152345 298.7801110942277 327.988669669267C314.402286714838 302.5200292170106 401.58917570027154 318.62352469978623 444.3193813374469 333.13815526599035C487.0495869746221 347.65278583219447 501.9009576949686 367.2207004211533 503.885098152669 397.65889638704687C505.8692386103694 428.0970923529404 481.87495549152334 467.21467651690966 453.8432555344083 479.24149590227944 "></path><path d="M490.89946088358533 397.95150954313374C492.6355837840732 424.5849310132906 471.64058605508285 458.8128171567637 447.1128485926073 469.3362841189622C422.5851111301316 479.85975108116077 401.4330401022772 476.0362807437459 373.1663210637026 448.4641509616864C344.899602025128 420.8920211796269 297.7631935394152 359.27512156080076 311.43259720744925 336.9900611650764C325.10200087548327 314.70500076935207 401.3905287377376 328.7955593167807 438.77945867026597 341.4958610622093C476.1683886027944 354.1961628076379 489.16333798309756 371.3180880729769 490.89946088358533 397.95150954313374C492.6355837840732 424.5849310132906 471.64058605508285 458.8128171567637 447.1128485926073 469.3362841189622 "></path><path d="M477.9138236145018 398.2441532167988C479.40192895777705 421.07280019121896 461.4062166186425 450.4109883141959 440.3824416508062 459.4311028532232C419.35866668296995 468.45121739225056 401.22832008766613 465.1739571030378 376.9997037688879 441.5407030041297C352.7710874501097 417.90744890522154 312.36845160521307 365.09296351765624 324.0850833206708 345.9914831784639C335.80171503612854 326.89000283927163 401.1918817752037 338.96762445135334 433.23953600308516 349.8535973760064C465.28719023096664 360.7395703006595 476.4257182712265 375.4155062423786 477.9138236145018 398.2441532167988C479.40192895777705 421.07280019121896 461.4062166186425 450.4109883141959 440.3824416508062 459.4311028532232 "></path><path d="M464.92817108662905 398.5368121492529C466.1682588726918 417.5606846279364 451.17183192341304 442.00917473041716 433.65201945021613 449.5259368462732C416.1322069770192 457.04269896212935 401.0235848142661 454.3116487211188 380.8330712152842 434.61727030536196C360.6425576163024 414.9228918896052 326.9736944122218 370.9108207333008 336.73755417510324 354.9929204506405C346.5014139379847 339.07502016798026 400.99321955388064 349.139704844715 427.69959807711524 358.2113489485926C454.4059766003498 367.28299305247015 463.6880833005663 379.51293967056944 464.92817108662905 398.5368121492529C466.1682588726918 417.5606846279364 451.17183192341304 442.00917473041716 433.65201945021613 449.5259368462732 "></path><path d="M451.9425490763345 398.82945582291796C452.9346193051847 414.04855380586474 440.93747774576167 433.60734588784936 426.92162776720414 439.62075558053425C412.9057777886467 445.6341652732191 400.8188800584441 443.44932508041063 384.6664691792586 427.6938223478052C368.51405830007315 411.93831961519976 341.5789677368087 376.7286626901562 349.39005554711383 363.994342464028C357.201143357419 351.2600222378998 400.79458785013577 359.31176997928765 422.15969066872344 366.5690852623897C443.52479348731106 373.82640054549177 450.9504788474843 383.6103578399712 451.9425490763345 398.82945582291796C452.9346193051847 414.04855380586474 440.93747774576167 433.60734588784936 426.92162776720414 439.62075558053425 "></path><path d="M438.9569118072509 399.12208423779396C439.7009644788885 410.536407725004 430.70310830932124 425.2055017864925 420.1912208254031 429.7155590560061C409.679333341485 434.2256163255198 400.61416004383307 432.5869861809134 388.49985188444396 420.7703591314594C376.38554372505484 408.9537320820053 356.18422580260653 382.54648938822265 362.0425416603354 372.9957492186265C367.90085751806424 363.4450090490303 400.59594088760184 369.4838198550712 416.6197680015426 374.92680631739773C432.6435951154833 380.36979277972426 438.21285913561326 387.7077607505839 438.9569118072509 399.12208423779396C439.7009644788885 410.536407725004 430.70310830932124 425.2055017864925 420.1912208254031 429.7155590560061 "></path><path d="M425.9712745381672 399.4147126526699C426.46730965259235 407.0242616441433 420.4687388728808 416.8036576851356 413.4608138836021 419.81036253147806C406.45288889432334 422.8170673778205 400.409440029222 421.72464728141625 392.3332345896293 413.8468959151135C384.25702915003654 405.96914454881085 370.7894838684044 388.3643160862891 374.69502777355694 381.99715597322495C378.6005716787095 375.6299958601609 400.3972939250679 379.65586973085476 411.0798453343617 383.28452737240576C421.76239674365553 386.9131850139568 425.47523942374215 391.8051636611965 425.9712745381672 399.4147126526699C426.46730965259235 407.0242616441433 420.4687388728808 416.8036576851356 413.4608138836021 419.81036253147806 "></path><path d="M412.9856372690836 399.70735632633495C413.2336548262962 403.51213082207164 410.23436943644043 408.4018288425678 406.73040694180105 409.90518126573903C403.22644444716167 411.40853368891027 400.20472001461104 410.86232364070815 396.16661729481467 406.9234479575568C392.1285145750183 402.9845722744054 385.39474193420216 394.1821580431445 387.3475138867785 390.9985779866125C389.30028583935473 387.81499793008044 400.1986469625339 389.8279348654274 405.53992266718086 391.6422636862029C410.8811983718278 393.4565925069784 412.7376197118711 395.90258183059825 412.9856372690836 399.70735632633495C413.2336548262962 403.51213082207164 410.23436943644043 408.4018288425678 406.73040694180105 409.90518126573903 "></path></g></svg>